<?xml version="1.0" encoding="UTF-8" standalone="no"?>
<!-- Created with Inkscape (http://www.inkscape.org/) -->

<svg
   xmlns:dc="http://purl.org/dc/elements/1.1/"
   xmlns:cc="http://creativecommons.org/ns#"
   xmlns:rdf="http://www.w3.org/1999/02/22-rdf-syntax-ns#"
   xmlns:svg="http://www.w3.org/2000/svg"
   xmlns="http://www.w3.org/2000/svg"
   xmlns:sodipodi="http://sodipodi.sourceforge.net/DTD/sodipodi-0.dtd"
   xmlns:inkscape="http://www.inkscape.org/namespaces/inkscape"
   version="1.1"
   id="svg2"
   xml:space="preserve"
   width="960"
   height="960"
   viewBox="0 0 960 960"
   sodipodi:docname="no-image.svg"
   inkscape:version="0.92.4 (5da689c313, 2019-01-14)"><metadata
     id="metadata8"><rdf:RDF><cc:Work
         rdf:about=""><dc:format>image/svg+xml</dc:format><dc:type
           rdf:resource="http://purl.org/dc/dcmitype/StillImage" /><dc:title></dc:title></cc:Work></rdf:RDF></metadata><defs
     id="defs6"><clipPath
       clipPathUnits="userSpaceOnUse"
       id="clipPath20"><path
         d="M 0,720 H 720 V 0 H 0 Z"
         id="path18"
         inkscape:connector-curvature="0" /></clipPath><clipPath
       clipPathUnits="userSpaceOnUse"
       id="clipPath28"><path
         d="M 125.921,594.079 H 594.079 V 125.921 H 125.921 Z"
         id="path26"
         inkscape:connector-curvature="0" /></clipPath><clipPath
       clipPathUnits="userSpaceOnUse"
       id="clipPath46"><path
         d="M 0,720 H 720 V 0 H 0 Z"
         id="path44"
         inkscape:connector-curvature="0" /></clipPath></defs><sodipodi:namedview
     pagecolor="#ffffff"
     bordercolor="#666666"
     borderopacity="1"
     objecttolerance="10"
     gridtolerance="10"
     guidetolerance="10"
     inkscape:pageopacity="0"
     inkscape:pageshadow="2"
     inkscape:window-width="780"
     inkscape:window-height="480"
     id="namedview4"
     showgrid="false"
     inkscape:zoom="0.24583333"
     inkscape:cx="480"
     inkscape:cy="480"
     inkscape:window-x="397"
     inkscape:window-y="135"
     inkscape:window-maximized="0"
     inkscape:current-layer="g10" /><g
     id="g10"
     inkscape:groupmode="layer"
     inkscape:label="camera-1674882"
     transform="matrix(1.3333333,0,0,-1.3333333,0,960)"><path
       d="M 0,0 H 720 V 720 H 0 Z"
       style="fill:#b4c6cd;fill-opacity:1;fill-rule:nonzero;stroke:none"
       id="path12"
       inkscape:connector-curvature="0" /><g
       id="g14"><g
         id="g16"
         clip-path="url(#clipPath20)"><g
           id="g22"><g
             id="g24" /><g
             id="g36"><g
               clip-path="url(#clipPath28)"
               id="g34"
               style="opacity:0.69999701"><g
                 transform="translate(594.0787,360)"
                 id="g32"><path
                   d="m 0,0 c 0,-129.278 -104.801,-234.079 -234.079,-234.079 -129.278,0 -234.078,104.801 -234.078,234.079 0,129.278 104.8,234.079 234.078,234.079 C -104.801,234.079 0,129.278 0,0"
                   style="fill:#ffffff;fill-opacity:1;fill-rule:nonzero;stroke:none"
                   id="path30"
                   inkscape:connector-curvature="0" /></g></g></g></g></g></g><path
       d="M 517.779,254.458 H 202.221 V 429.294 H 517.779 Z M 325.886,465.542 h 68.229 v -17.057 h -68.229 z m 85.286,-19.19 v 36.247 H 308.828 v -36.247 h -63.964 v 19.19 h -59.7 v -19.19 -14.925 -194.026 h 349.672 v 208.951 z"
       style="fill:#af65a7;fill-opacity:1;fill-rule:nonzero;stroke:none"
       id="path38"
       inkscape:connector-curvature="0" /><g
       id="g40"><g
         id="g42"
         clip-path="url(#clipPath46)"><g
           id="g48"
           transform="translate(360,393.0484)"><path
             d="m 0,0 c 28.216,0 51.172,-22.956 51.172,-51.172 0,-28.215 -22.956,-51.171 -51.172,-51.171 -28.217,0 -51.172,22.956 -51.172,51.171 C -51.172,-22.956 -28.217,0 0,0 m 0,-119.401 c 37.621,0 68.229,30.609 68.229,68.229 0,37.621 -30.608,68.229 -68.229,68.229 -37.622,0 -68.229,-30.608 -68.229,-68.229 0,-37.62 30.607,-68.229 68.229,-68.229"
             style="fill:#af65a7;fill-opacity:1;fill-rule:nonzero;stroke:none"
             id="path50"
             inkscape:connector-curvature="0" /></g><path
           d="m 497.524,416.502 h -49.573 v -17.057 h 49.573 z"
           style="fill:#af65a7;fill-opacity:1;fill-rule:nonzero;stroke:none"
           id="path52"
           inkscape:connector-curvature="0" /></g></g></g></svg>